<svg width="924" height="449" viewBox="0 0 924 449" fill="none" xmlns="http://www.w3.org/2000/svg">
<path d="M0.355114 242L30.5398 60.1818H161.577L154.83 99.9545H73.1534L68.1818 131.205H143.111L136.364 170.977H61.4347L56.4631 202.227H137.784L131.037 242H0.355114ZM227.194 174.528H265.546L276.555 191.929L295.376 218.562L319.878 255.494H276.199L258.799 230.281L247.435 209.33L227.194 174.528ZM336.569 154.287C333.254 174.055 326.685 190.627 316.86 204.003C307.035 217.379 295.109 227.47 281.082 234.276C267.055 241.083 252.052 244.486 236.072 244.486C219.026 244.486 204.23 240.787 191.682 233.388C179.135 225.99 169.991 215.159 164.25 200.896C158.509 186.632 157.355 169.202 160.787 148.605C163.983 128.837 170.494 112.206 180.319 98.7116C190.144 85.2173 202.129 75.0078 216.274 68.0831C230.419 61.1584 245.541 57.696 261.64 57.696C278.567 57.696 293.274 61.4247 305.763 68.8821C318.31 76.3395 327.425 87.2592 333.106 101.641C338.847 116.023 340.001 133.572 336.569 154.287ZM286.853 148.605C288.51 138.188 288.628 129.429 287.208 122.327C285.787 115.165 282.799 109.779 278.241 106.169C273.684 102.5 267.558 100.665 259.864 100.665C251.105 100.665 243.351 102.795 236.604 107.057C229.857 111.318 224.264 117.444 219.825 125.434C215.386 133.424 212.279 143.042 210.503 154.287C208.609 164.822 208.432 173.581 209.971 180.565C211.569 187.549 214.706 192.787 219.381 196.279C224.116 199.771 230.271 201.517 237.847 201.517C246.488 201.517 254.123 199.446 260.752 195.303C267.44 191.16 272.974 185.152 277.354 177.281C281.792 169.409 284.959 159.85 286.853 148.605ZM482.631 60.1818H531.992L512.638 176.659C510.389 190.509 505.122 202.494 496.836 212.614C488.609 222.676 478.133 230.459 465.408 235.963C452.683 241.408 438.538 244.131 422.972 244.131C407.288 244.131 394.031 241.408 383.2 235.963C372.369 230.459 364.497 222.676 359.585 212.614C354.731 202.494 353.429 190.509 355.678 176.659L375.032 60.1818H424.393L405.749 172.398C404.862 178.02 405.305 183.022 407.081 187.401C408.857 191.781 411.727 195.243 415.692 197.788C419.658 200.274 424.452 201.517 430.075 201.517C435.756 201.517 440.994 200.274 445.788 197.788C450.642 195.243 454.666 191.781 457.862 187.401C461.058 183.022 463.1 178.02 463.988 172.398L482.631 60.1818ZM604.813 60.1818L574.628 242H525.267L555.452 60.1818H604.813ZM598.021 242L628.206 60.1818H706.686C720.18 60.1818 731.544 62.8452 740.777 68.1719C750.01 73.4986 756.639 80.9856 760.663 90.6328C764.688 100.28 765.635 111.555 763.504 124.457C761.373 137.597 756.639 148.931 749.3 158.46C742.02 167.929 732.728 175.239 721.423 180.388C710.178 185.478 697.571 188.023 683.604 188.023H636.729L643.121 149.67H680.052C685.971 149.67 691.179 148.664 695.677 146.652C700.175 144.58 703.815 141.68 706.597 137.952C709.379 134.164 711.184 129.666 712.013 124.457C712.841 119.249 712.457 114.81 710.858 111.141C709.32 107.412 706.656 104.571 702.868 102.618C699.14 100.606 694.375 99.5994 688.575 99.5994H671.175L647.382 242H598.021ZM762.084 242L792.268 60.1818H923.305L916.558 99.9545H834.882L829.91 131.205H904.839L898.092 170.977H823.163L818.192 202.227H899.513L892.765 242H762.084Z" fill="#CD0000"/>
<path d="M106.585 447H53.3182L143.517 265.182H210.989L240.818 447H187.551L169.795 315.253H168.375L106.585 447ZM108.716 375.267H208.858L202.466 412.199H102.324L108.716 375.267ZM228.846 304.955L235.594 265.182H393.619L386.872 304.955H332.184L308.747 447H260.096L283.534 304.955H228.846ZM461.557 265.182L431.372 447H382.011L412.196 265.182H461.557ZM534.666 265.182L550.646 393.378H552.066L610.66 265.182H666.413L576.214 447H508.743L478.913 265.182H534.666ZM671.185 447H617.918L708.117 265.182H775.588L805.418 447H752.151L734.395 315.253H732.975L671.185 447ZM673.316 375.267H773.458L767.066 412.199H666.923L673.316 375.267Z" fill="#CD0000"/>
</svg>
